# xmcd
#
# Track frame offsets: 
#        150
#        16393
#        35070
#        63941
#
# Disc length: 1253 seconds
#
# Revision: 1
# Processed by: cddbd v1.5.2PL0 Copyright (c) Steve Scherf et al.
# Submitted via: ExactAudioCopy v1.0b3
#
DISCID=2d04e304
DTITLE=Mark Medlock - Mamacita
DYEAR=2009
DGENRE=
TTITLE0=Mamacita (Single Version)
TTITLE1=Mamacita (Karaoke Version)
TTITLE2=Heart to Heart (Alana Remix)
TTITLE3=mamacita (Video Clip)
EXTD=
EXTT0=
EXTT1=
EXTT2=
EXTT3=
PLAYORDER=
